<mxfile host="app.diagrams.net" agent="Mozilla/5.0 (Windows NT 10.0; Win64; x64; rv:137.0) Gecko/20100101 Firefox/137.0" version="26.2.12">
  <diagram name="Page-1" id="DEt2ukbMxq-OfJzM4Ixj">
    <mxGraphModel dx="1360" dy="710" grid="1" gridSize="10" guides="1" tooltips="1" connect="1" arrows="1" fold="1" page="1" pageScale="1" pageWidth="850" pageHeight="1100" math="0" shadow="0">
      <root>
        <mxCell id="0" />
        <mxCell id="1" parent="0" />
        <mxCell id="pVOmfEwXMJu_z0S_EDSU-1" value="[Start]&#xa;   |&#xa;[User logs in / signs up]&#xa;   |&#xa;[Search for Flights (Source, Destination, Date)]&#xa;   |&#xa;[Display Available Flights]&#xa;   |&#xa;[Select Flight]&#xa;   |&#xa;[Choose Seat(s)]&#xa;   |&#xa;[Enter Passenger Details (Name, Email, etc.)]&#xa;   |&#xa;[Make Payment]&#xa;   |&#xa;[Payment Successful?] ---&gt; No ----&gt; [Show Error &amp; Retry Option] ----&gt; [Make Payment]&#xa;   | Yes&#xa;[Generate Ticket / Booking Confirmation]&#xa;   |&#xa;[Send Confirmation Email]&#xa;   |&#xa;[Check-in Option Available?] ---&gt; No ----&gt; [End]&#xa;   | Yes&#xa;[User Check-In (Select Seat Again or Auto-Assign)]&#xa;   |&#xa;[Generate Boarding Pass]&#xa;   |&#xa;[End]" style="text;whiteSpace=wrap;" vertex="1" parent="1">
          <mxGeometry x="250" y="50" width="490" height="440" as="geometry" />
        </mxCell>
        <mxCell id="pVOmfEwXMJu_z0S_EDSU-2" value="Search Flights" style="rounded=1;whiteSpace=wrap;html=1;" vertex="1" parent="1">
          <mxGeometry x="320" y="660" width="110" height="40" as="geometry" />
        </mxCell>
        <mxCell id="pVOmfEwXMJu_z0S_EDSU-3" value="Display Available Flights" style="rounded=1;whiteSpace=wrap;html=1;" vertex="1" parent="1">
          <mxGeometry x="302.5" y="720" width="145" height="40" as="geometry" />
        </mxCell>
        <mxCell id="pVOmfEwXMJu_z0S_EDSU-4" value="User Login/Sign Up" style="rounded=1;whiteSpace=wrap;html=1;" vertex="1" parent="1">
          <mxGeometry x="320" y="600" width="110" height="40" as="geometry" />
        </mxCell>
        <mxCell id="pVOmfEwXMJu_z0S_EDSU-5" value="Select Flight" style="rounded=1;whiteSpace=wrap;html=1;" vertex="1" parent="1">
          <mxGeometry x="315" y="780" width="120" height="40" as="geometry" />
        </mxCell>
        <mxCell id="pVOmfEwXMJu_z0S_EDSU-7" value="Make Booking , Enter Passenger Details" style="rounded=1;whiteSpace=wrap;html=1;" vertex="1" parent="1">
          <mxGeometry x="310" y="970" width="120" height="40" as="geometry" />
        </mxCell>
        <mxCell id="pVOmfEwXMJu_z0S_EDSU-9" value="Send Email Confirmation" style="rounded=1;whiteSpace=wrap;html=1;" vertex="1" parent="1">
          <mxGeometry x="320" y="1140" width="120" height="40" as="geometry" />
        </mxCell>
        <mxCell id="pVOmfEwXMJu_z0S_EDSU-10" value="CheckIn" style="rounded=1;whiteSpace=wrap;html=1;" vertex="1" parent="1">
          <mxGeometry x="322.5" y="1200" width="120" height="30" as="geometry" />
        </mxCell>
        <mxCell id="pVOmfEwXMJu_z0S_EDSU-12" value="Check SeatAvailability" style="rhombus;whiteSpace=wrap;html=1;" vertex="1" parent="1">
          <mxGeometry x="322.5" y="850" width="90" height="90" as="geometry" />
        </mxCell>
        <mxCell id="pVOmfEwXMJu_z0S_EDSU-13" value="" style="endArrow=classic;html=1;rounded=0;exitX=0.437;exitY=0.967;exitDx=0;exitDy=0;exitPerimeter=0;entryX=0.46;entryY=-0.009;entryDx=0;entryDy=0;entryPerimeter=0;" edge="1" parent="1" source="pVOmfEwXMJu_z0S_EDSU-4" target="pVOmfEwXMJu_z0S_EDSU-2">
          <mxGeometry width="50" height="50" relative="1" as="geometry">
            <mxPoint x="440" y="790" as="sourcePoint" />
            <mxPoint x="490" y="740" as="targetPoint" />
          </mxGeometry>
        </mxCell>
        <mxCell id="pVOmfEwXMJu_z0S_EDSU-14" value="" style="endArrow=classic;html=1;rounded=0;exitX=0.5;exitY=1;exitDx=0;exitDy=0;entryX=0.5;entryY=0;entryDx=0;entryDy=0;" edge="1" parent="1" source="pVOmfEwXMJu_z0S_EDSU-2" target="pVOmfEwXMJu_z0S_EDSU-3">
          <mxGeometry width="50" height="50" relative="1" as="geometry">
            <mxPoint x="440" y="840" as="sourcePoint" />
            <mxPoint x="490" y="790" as="targetPoint" />
          </mxGeometry>
        </mxCell>
        <mxCell id="pVOmfEwXMJu_z0S_EDSU-15" value="" style="endArrow=classic;html=1;rounded=0;exitX=0.5;exitY=1;exitDx=0;exitDy=0;entryX=0.5;entryY=0;entryDx=0;entryDy=0;" edge="1" parent="1" source="pVOmfEwXMJu_z0S_EDSU-3" target="pVOmfEwXMJu_z0S_EDSU-5">
          <mxGeometry width="50" height="50" relative="1" as="geometry">
            <mxPoint x="440" y="880" as="sourcePoint" />
            <mxPoint x="490" y="830" as="targetPoint" />
          </mxGeometry>
        </mxCell>
        <mxCell id="pVOmfEwXMJu_z0S_EDSU-16" value="" style="endArrow=classic;html=1;rounded=0;exitX=0.417;exitY=1;exitDx=0;exitDy=0;exitPerimeter=0;" edge="1" parent="1" source="pVOmfEwXMJu_z0S_EDSU-5" target="pVOmfEwXMJu_z0S_EDSU-12">
          <mxGeometry width="50" height="50" relative="1" as="geometry">
            <mxPoint x="440" y="1000" as="sourcePoint" />
            <mxPoint x="490" y="950" as="targetPoint" />
          </mxGeometry>
        </mxCell>
        <mxCell id="pVOmfEwXMJu_z0S_EDSU-17" value="" style="endArrow=classic;html=1;rounded=0;exitX=0.5;exitY=1;exitDx=0;exitDy=0;entryX=0.465;entryY=-0.073;entryDx=0;entryDy=0;entryPerimeter=0;" edge="1" parent="1" source="pVOmfEwXMJu_z0S_EDSU-12" target="pVOmfEwXMJu_z0S_EDSU-7">
          <mxGeometry width="50" height="50" relative="1" as="geometry">
            <mxPoint x="440" y="1100" as="sourcePoint" />
            <mxPoint x="490" y="1050" as="targetPoint" />
          </mxGeometry>
        </mxCell>
        <mxCell id="pVOmfEwXMJu_z0S_EDSU-18" value="Yes" style="text;html=1;align=center;verticalAlign=middle;whiteSpace=wrap;rounded=0;" vertex="1" parent="1">
          <mxGeometry x="360" y="930" width="60" height="30" as="geometry" />
        </mxCell>
        <mxCell id="pVOmfEwXMJu_z0S_EDSU-19" value="&lt;div&gt;Make &lt;br&gt;&lt;/div&gt;&lt;div&gt;Payment&lt;/div&gt;" style="rhombus;whiteSpace=wrap;html=1;" vertex="1" parent="1">
          <mxGeometry x="330" y="1030" width="80" height="80" as="geometry" />
        </mxCell>
        <mxCell id="pVOmfEwXMJu_z0S_EDSU-20" value="" style="endArrow=classic;html=1;rounded=0;exitX=0.5;exitY=1;exitDx=0;exitDy=0;entryX=0.5;entryY=0;entryDx=0;entryDy=0;" edge="1" parent="1" source="pVOmfEwXMJu_z0S_EDSU-7" target="pVOmfEwXMJu_z0S_EDSU-19">
          <mxGeometry width="50" height="50" relative="1" as="geometry">
            <mxPoint x="440" y="1260" as="sourcePoint" />
            <mxPoint x="490" y="1210" as="targetPoint" />
          </mxGeometry>
        </mxCell>
        <mxCell id="pVOmfEwXMJu_z0S_EDSU-21" value="Success" style="text;html=1;align=center;verticalAlign=middle;whiteSpace=wrap;rounded=0;" vertex="1" parent="1">
          <mxGeometry x="365" y="1100" width="60" height="30" as="geometry" />
        </mxCell>
        <mxCell id="pVOmfEwXMJu_z0S_EDSU-22" value="" style="endArrow=classic;html=1;rounded=0;exitX=0.5;exitY=1;exitDx=0;exitDy=0;entryX=0.388;entryY=-0.041;entryDx=0;entryDy=0;entryPerimeter=0;" edge="1" parent="1" source="pVOmfEwXMJu_z0S_EDSU-19" target="pVOmfEwXMJu_z0S_EDSU-9">
          <mxGeometry width="50" height="50" relative="1" as="geometry">
            <mxPoint x="440" y="1360" as="sourcePoint" />
            <mxPoint x="490" y="1310" as="targetPoint" />
          </mxGeometry>
        </mxCell>
        <mxCell id="pVOmfEwXMJu_z0S_EDSU-23" value="" style="endArrow=classic;html=1;rounded=0;exitX=0.544;exitY=1.023;exitDx=0;exitDy=0;exitPerimeter=0;entryX=0.555;entryY=0.096;entryDx=0;entryDy=0;entryPerimeter=0;" edge="1" parent="1" source="pVOmfEwXMJu_z0S_EDSU-9" target="pVOmfEwXMJu_z0S_EDSU-10">
          <mxGeometry width="50" height="50" relative="1" as="geometry">
            <mxPoint x="440" y="1390" as="sourcePoint" />
            <mxPoint x="490" y="1340" as="targetPoint" />
          </mxGeometry>
        </mxCell>
        <mxCell id="pVOmfEwXMJu_z0S_EDSU-24" value="End" style="text;html=1;align=center;verticalAlign=middle;whiteSpace=wrap;rounded=0;" vertex="1" parent="1">
          <mxGeometry x="345" y="1260" width="60" height="30" as="geometry" />
        </mxCell>
        <mxCell id="pVOmfEwXMJu_z0S_EDSU-25" value="" style="endArrow=classic;html=1;rounded=0;exitX=0.447;exitY=1.085;exitDx=0;exitDy=0;exitPerimeter=0;entryX=0.5;entryY=0;entryDx=0;entryDy=0;" edge="1" parent="1" source="pVOmfEwXMJu_z0S_EDSU-10" target="pVOmfEwXMJu_z0S_EDSU-24">
          <mxGeometry width="50" height="50" relative="1" as="geometry">
            <mxPoint x="440" y="1480" as="sourcePoint" />
            <mxPoint x="490" y="1430" as="targetPoint" />
          </mxGeometry>
        </mxCell>
        <mxCell id="pVOmfEwXMJu_z0S_EDSU-26" value="" style="endArrow=classic;html=1;rounded=0;exitX=1;exitY=0.5;exitDx=0;exitDy=0;entryX=1;entryY=0;entryDx=0;entryDy=0;" edge="1" parent="1" source="pVOmfEwXMJu_z0S_EDSU-12" target="pVOmfEwXMJu_z0S_EDSU-24">
          <mxGeometry width="50" height="50" relative="1" as="geometry">
            <mxPoint x="440" y="1080" as="sourcePoint" />
            <mxPoint x="630" y="1500" as="targetPoint" />
            <Array as="points">
              <mxPoint x="590" y="890" />
              <mxPoint x="590" y="1260" />
            </Array>
          </mxGeometry>
        </mxCell>
        <mxCell id="pVOmfEwXMJu_z0S_EDSU-27" value="No" style="text;html=1;align=center;verticalAlign=middle;whiteSpace=wrap;rounded=0;" vertex="1" parent="1">
          <mxGeometry x="395" y="870" width="60" height="30" as="geometry" />
        </mxCell>
        <mxCell id="pVOmfEwXMJu_z0S_EDSU-29" value="" style="endArrow=classic;html=1;rounded=0;exitX=1;exitY=0.5;exitDx=0;exitDy=0;" edge="1" parent="1" source="pVOmfEwXMJu_z0S_EDSU-19" target="pVOmfEwXMJu_z0S_EDSU-24">
          <mxGeometry width="50" height="50" relative="1" as="geometry">
            <mxPoint x="430" y="1260" as="sourcePoint" />
            <mxPoint x="430" y="1520" as="targetPoint" />
            <Array as="points">
              <mxPoint x="530" y="1070" />
              <mxPoint x="530" y="1275" />
            </Array>
          </mxGeometry>
        </mxCell>
        <mxCell id="pVOmfEwXMJu_z0S_EDSU-30" value="Failure" style="text;html=1;align=center;verticalAlign=middle;whiteSpace=wrap;rounded=0;" vertex="1" parent="1">
          <mxGeometry x="395" y="1030" width="60" height="30" as="geometry" />
        </mxCell>
      </root>
    </mxGraphModel>
  </diagram>
</mxfile>
